<?xml version="1.0" encoding="UTF-8" standalone="no"?>
<!DOCTYPE svg PUBLIC "-//W3C//DTD SVG 1.1//EN"
 "http://www.w3.org/Graphics/SVG/1.1/DTD/svg11.dtd">
<!-- Generated by graphviz version 2.40.1 (20161225.0304)
 -->
<!-- Title: typeclass Pages: 1 -->
<svg width="214pt" height="404pt"
 viewBox="0.00 0.00 213.50 404.00" xmlns="http://www.w3.org/2000/svg" xmlns:xlink="http://www.w3.org/1999/xlink">
<g id="graph0" class="graph" transform="scale(1 1) rotate(0) translate(4 400)">
<title>typeclass</title>
<!-- Bracket -->
<g id="node1" class="node">
<title>Bracket</title>
<polygon fill="none" stroke="#000000" points="146,-108 78,-108 78,-72 146,-72 146,-108"/>
<text text-anchor="middle" x="112" y="-86.3" font-family="Times,serif" font-size="14.00" fill="#000000">Bracket</text>
</g>
<!-- MonadError -->
<g id="node2" class="node">
<title>MonadError</title>
<polygon fill="none" stroke="#000000" points="161,-36 63,-36 63,0 161,0 161,-36"/>
<text text-anchor="middle" x="112" y="-14.3" font-family="Times,serif" font-size="14.00" fill="#000000">MonadError</text>
</g>
<!-- Bracket&#45;&gt;MonadError -->
<g id="edge1" class="edge">
<title>Bracket&#45;&gt;MonadError</title>
<path fill="none" stroke="#000000" d="M112,-71.8314C112,-64.131 112,-54.9743 112,-46.4166"/>
<polygon fill="#000000" stroke="#000000" points="115.5001,-46.4132 112,-36.4133 108.5001,-46.4133 115.5001,-46.4132"/>
</g>
<!-- Sync -->
<g id="node3" class="node">
<title>Sync</title>
<polygon fill="none" stroke="#000000" points="139,-180 85,-180 85,-144 139,-144 139,-180"/>
<text text-anchor="middle" x="112" y="-158.3" font-family="Times,serif" font-size="14.00" fill="#000000">Sync</text>
</g>
<!-- Sync&#45;&gt;Bracket -->
<g id="edge2" class="edge">
<title>Sync&#45;&gt;Bracket</title>
<path fill="none" stroke="#000000" d="M112,-143.8314C112,-136.131 112,-126.9743 112,-118.4166"/>
<polygon fill="#000000" stroke="#000000" points="115.5001,-118.4132 112,-108.4133 108.5001,-118.4133 115.5001,-118.4132"/>
</g>
<!-- Async -->
<g id="node4" class="node">
<title>Async</title>
<polygon fill="none" stroke="#000000" points="140,-252 84,-252 84,-216 140,-216 140,-252"/>
<text text-anchor="middle" x="112" y="-230.3" font-family="Times,serif" font-size="14.00" fill="#000000">Async</text>
</g>
<!-- Async&#45;&gt;Sync -->
<g id="edge3" class="edge">
<title>Async&#45;&gt;Sync</title>
<path fill="none" stroke="#000000" d="M112,-215.8314C112,-208.131 112,-198.9743 112,-190.4166"/>
<polygon fill="#000000" stroke="#000000" points="115.5001,-190.4132 112,-180.4133 108.5001,-190.4133 115.5001,-190.4132"/>
</g>
<!-- Effect -->
<g id="node5" class="node">
<title>Effect</title>
<polygon fill="none" stroke="#000000" points="94,-324 38,-324 38,-288 94,-288 94,-324"/>
<text text-anchor="middle" x="66" y="-302.3" font-family="Times,serif" font-size="14.00" fill="#000000">Effect</text>
</g>
<!-- Effect&#45;&gt;Async -->
<g id="edge4" class="edge">
<title>Effect&#45;&gt;Async</title>
<path fill="none" stroke="#000000" d="M77.6077,-287.8314C82.7978,-279.7079 89.0232,-269.9637 94.7425,-261.0118"/>
<polygon fill="#000000" stroke="#000000" points="97.8015,-262.7246 100.236,-252.4133 91.9026,-258.9559 97.8015,-262.7246"/>
</g>
<!-- Concurrent -->
<g id="node6" class="node">
<title>Concurrent</title>
<polygon fill="none" stroke="#000000" points="205.5,-324 112.5,-324 112.5,-288 205.5,-288 205.5,-324"/>
<text text-anchor="middle" x="159" y="-302.3" font-family="Times,serif" font-size="14.00" fill="#000000">Concurrent</text>
</g>
<!-- Concurrent&#45;&gt;Async -->
<g id="edge5" class="edge">
<title>Concurrent&#45;&gt;Async</title>
<path fill="none" stroke="#000000" d="M147.1399,-287.8314C141.8371,-279.7079 135.4763,-269.9637 129.6327,-261.0118"/>
<polygon fill="#000000" stroke="#000000" points="132.4169,-258.8739 124.0198,-252.4133 126.5552,-262.7003 132.4169,-258.8739"/>
</g>
<!-- ConcurrentEffect -->
<g id="node7" class="node">
<title>ConcurrentEffect</title>
<polygon fill="none" stroke="#000000" points="132,-396 0,-396 0,-360 132,-360 132,-396"/>
<text text-anchor="middle" x="66" y="-374.3" font-family="Times,serif" font-size="14.00" fill="#000000">ConcurrentEffect</text>
</g>
<!-- ConcurrentEffect&#45;&gt;Effect -->
<g id="edge6" class="edge">
<title>ConcurrentEffect&#45;&gt;Effect</title>
<path fill="none" stroke="#000000" d="M66,-359.8314C66,-352.131 66,-342.9743 66,-334.4166"/>
<polygon fill="#000000" stroke="#000000" points="69.5001,-334.4132 66,-324.4133 62.5001,-334.4133 69.5001,-334.4132"/>
</g>
</g>
</svg>
