<?xml version="1.0" encoding="UTF-8" standalone="no"?>
<!DOCTYPE svg PUBLIC "-//W3C//DTD SVG 1.1//EN"
 "http://www.w3.org/Graphics/SVG/1.1/DTD/svg11.dtd">
<!-- Generated by graphviz version 2.40.1 (20161225.0304)
 -->
<!-- Title: typeclass Pages: 1 -->
<svg width="218pt" height="404pt"
 viewBox="0.00 0.00 217.50 404.00" xmlns="http://www.w3.org/2000/svg" xmlns:xlink="http://www.w3.org/1999/xlink">
<g id="graph0" class="graph" transform="scale(1 1) rotate(0) translate(4 400)">
<title>typeclass</title>
<!-- Bracket -->
<g id="node1" class="node">
<title>Bracket</title>
<polygon fill="none" stroke="#000000" points="150,-108 81,-108 81,-72 150,-72 150,-108"/>
<text text-anchor="middle" x="115.5" y="-86.3" font-family="monospace" font-size="14.00" fill="#000000">Bracket</text>
</g>
<!-- MonadError -->
<g id="node2" class="node">
<title>MonadError</title>
<polygon fill="none" stroke="#000000" points="161.5,-36 69.5,-36 69.5,0 161.5,0 161.5,-36"/>
<text text-anchor="middle" x="115.5" y="-14.3" font-family="monospace" font-size="14.00" fill="#000000">MonadError</text>
</g>
<!-- Bracket&#45;&gt;MonadError -->
<g id="edge1" class="edge">
<title>Bracket&#45;&gt;MonadError</title>
<path fill="none" stroke="#000000" d="M115.5,-71.8314C115.5,-64.131 115.5,-54.9743 115.5,-46.4166"/>
<polygon fill="#000000" stroke="#000000" points="119.0001,-46.4132 115.5,-36.4133 112.0001,-46.4133 119.0001,-46.4132"/>
</g>
<!-- Sync -->
<g id="node3" class="node">
<title>Sync</title>
<polygon fill="none" stroke="#000000" points="142.5,-180 88.5,-180 88.5,-144 142.5,-144 142.5,-180"/>
<text text-anchor="middle" x="115.5" y="-158.3" font-family="monospace" font-size="14.00" fill="#000000">Sync</text>
</g>
<!-- Sync&#45;&gt;Bracket -->
<g id="edge2" class="edge">
<title>Sync&#45;&gt;Bracket</title>
<path fill="none" stroke="#000000" d="M115.5,-143.8314C115.5,-136.131 115.5,-126.9743 115.5,-118.4166"/>
<polygon fill="#000000" stroke="#000000" points="119.0001,-118.4132 115.5,-108.4133 112.0001,-118.4133 119.0001,-118.4132"/>
</g>
<!-- Async -->
<g id="node4" class="node">
<title>Async</title>
<polygon fill="none" stroke="#000000" points="142.5,-252 88.5,-252 88.5,-216 142.5,-216 142.5,-252"/>
<text text-anchor="middle" x="115.5" y="-230.3" font-family="monospace" font-size="14.00" fill="#000000">Async</text>
</g>
<!-- Async&#45;&gt;Sync -->
<g id="edge3" class="edge">
<title>Async&#45;&gt;Sync</title>
<path fill="none" stroke="#000000" d="M115.5,-215.8314C115.5,-208.131 115.5,-198.9743 115.5,-190.4166"/>
<polygon fill="#000000" stroke="#000000" points="119.0001,-190.4132 115.5,-180.4133 112.0001,-190.4133 119.0001,-190.4132"/>
</g>
<!-- Effect -->
<g id="node5" class="node">
<title>Effect</title>
<polygon fill="none" stroke="#000000" points="99.5,-324 37.5,-324 37.5,-288 99.5,-288 99.5,-324"/>
<text text-anchor="middle" x="68.5" y="-302.3" font-family="monospace" font-size="14.00" fill="#000000">Effect</text>
</g>
<!-- Effect&#45;&gt;Async -->
<g id="edge4" class="edge">
<title>Effect&#45;&gt;Async</title>
<path fill="none" stroke="#000000" d="M80.3601,-287.8314C85.6629,-279.7079 92.0237,-269.9637 97.8673,-261.0118"/>
<polygon fill="#000000" stroke="#000000" points="100.9448,-262.7003 103.4802,-252.4133 95.0831,-258.8739 100.9448,-262.7003"/>
</g>
<!-- Concurrent -->
<g id="node6" class="node">
<title>Concurrent</title>
<polygon fill="none" stroke="#000000" points="209.5,-324 117.5,-324 117.5,-288 209.5,-288 209.5,-324"/>
<text text-anchor="middle" x="163.5" y="-302.3" font-family="monospace" font-size="14.00" fill="#000000">Concurrent</text>
</g>
<!-- Concurrent&#45;&gt;Async -->
<g id="edge5" class="edge">
<title>Concurrent&#45;&gt;Async</title>
<path fill="none" stroke="#000000" d="M151.3876,-287.8314C145.9719,-279.7079 139.4758,-269.9637 133.5079,-261.0118"/>
<polygon fill="#000000" stroke="#000000" points="136.2347,-258.7923 127.7755,-252.4133 130.4104,-262.6753 136.2347,-258.7923"/>
</g>
<!-- ConcurrentEffect -->
<g id="node7" class="node">
<title>ConcurrentEffect</title>
<polygon fill="none" stroke="#000000" points="137,-396 0,-396 0,-360 137,-360 137,-396"/>
<text text-anchor="middle" x="68.5" y="-374.3" font-family="monospace" font-size="14.00" fill="#000000">ConcurrentEffect</text>
</g>
<!-- ConcurrentEffect&#45;&gt;Effect -->
<g id="edge6" class="edge">
<title>ConcurrentEffect&#45;&gt;Effect</title>
<path fill="none" stroke="#000000" d="M68.5,-359.8314C68.5,-352.131 68.5,-342.9743 68.5,-334.4166"/>
<polygon fill="#000000" stroke="#000000" points="72.0001,-334.4132 68.5,-324.4133 65.0001,-334.4133 72.0001,-334.4132"/>
</g>
</g>
</svg>
