<?xml version="1.0" encoding="UTF-8" standalone="no"?><svg xmlns="http://www.w3.org/2000/svg" xmlns:xlink="http://www.w3.org/1999/xlink" contentScriptType="application/ecmascript" contentStyleType="text/css" height="511px" preserveAspectRatio="none" style="width:205px;height:511px;" version="1.1" viewBox="0 0 205 511" width="205px" zoomAndPan="magnify"><defs><filter height="300%" id="f1o9iasg394odr" width="300%" x="-1" y="-1"><feGaussianBlur result="blurOut" stdDeviation="2.0"/><feColorMatrix in="blurOut" result="blurOut2" type="matrix" values="0 0 0 0 0 0 0 0 0 0 0 0 0 0 0 0 0 0 .4 0"/><feOffset dx="4.0" dy="4.0" in="blurOut2" result="blurOut3"/><feBlend in="SourceGraphic" in2="blurOut3" mode="normal"/></filter></defs><g><!--class MonadError--><rect fill="#FEFECE" filter="url(#f1o9iasg394odr)" height="32" id="MonadError" style="stroke: #A80036; stroke-width: 1.5;" width="98" x="43.5" y="8"/><ellipse cx="58.5" cy="24" fill="#B4A7E5" rx="11" ry="11" style="stroke: #A80036; stroke-width: 1.0;"/><path d="M61.8125,30 L55.6875,30 L55.6875,28.1563 L57.5313,28.1563 L57.5313,19.4219 L55.6875,19.4219 L55.6875,17.5938 L61.8125,17.5938 L61.8125,19.4219 L59.9688,19.4219 L59.9688,28.1563 L61.8125,28.1563 L61.8125,30 Z "/><text fill="#000000" font-family="sans-serif" font-size="12" font-style="italic" lengthAdjust="spacingAndGlyphs" textLength="66" x="72.5" y="28.656">MonadError</text><!--class Bracket--><rect fill="#FEFECE" filter="url(#f1o9iasg394odr)" height="32" id="Bracket" style="stroke: #A80036; stroke-width: 1.5;" width="72" x="56.5" y="100"/><ellipse cx="71.5" cy="116" fill="#B4A7E5" rx="11" ry="11" style="stroke: #A80036; stroke-width: 1.0;"/><path d="M74.8125,122 L68.6875,122 L68.6875,120.1563 L70.5313,120.1563 L70.5313,111.4219 L68.6875,111.4219 L68.6875,109.5938 L74.8125,109.5938 L74.8125,111.4219 L72.9688,111.4219 L72.9688,120.1563 L74.8125,120.1563 L74.8125,122 Z "/><text fill="#000000" font-family="sans-serif" font-size="12" font-style="italic" lengthAdjust="spacingAndGlyphs" textLength="40" x="85.5" y="120.656">Bracket</text><!--class Sync--><rect fill="#FEFECE" filter="url(#f1o9iasg394odr)" height="32" id="Sync" style="stroke: #A80036; stroke-width: 1.5;" width="56" x="64.5" y="192"/><ellipse cx="79.5" cy="208" fill="#B4A7E5" rx="11" ry="11" style="stroke: #A80036; stroke-width: 1.0;"/><path d="M82.8125,214 L76.6875,214 L76.6875,212.1563 L78.5313,212.1563 L78.5313,203.4219 L76.6875,203.4219 L76.6875,201.5938 L82.8125,201.5938 L82.8125,203.4219 L80.9688,203.4219 L80.9688,212.1563 L82.8125,212.1563 L82.8125,214 Z "/><text fill="#000000" font-family="sans-serif" font-size="12" font-style="italic" lengthAdjust="spacingAndGlyphs" textLength="24" x="93.5" y="212.656">Sync</text><!--class Async--><rect fill="#FEFECE" filter="url(#f1o9iasg394odr)" height="32" id="Async" style="stroke: #A80036; stroke-width: 1.5;" width="62" x="61.5" y="284"/><ellipse cx="76.5" cy="300" fill="#B4A7E5" rx="11" ry="11" style="stroke: #A80036; stroke-width: 1.0;"/><path d="M79.8125,306 L73.6875,306 L73.6875,304.1563 L75.5313,304.1563 L75.5313,295.4219 L73.6875,295.4219 L73.6875,293.5938 L79.8125,293.5938 L79.8125,295.4219 L77.9688,295.4219 L77.9688,304.1563 L79.8125,304.1563 L79.8125,306 Z "/><text fill="#000000" font-family="sans-serif" font-size="12" font-style="italic" lengthAdjust="spacingAndGlyphs" textLength="30" x="90.5" y="304.656">Async</text><!--class Effect--><rect fill="#FEFECE" filter="url(#f1o9iasg394odr)" height="32" id="Effect" style="stroke: #A80036; stroke-width: 1.5;" width="61" x="6" y="376"/><ellipse cx="21" cy="392" fill="#B4A7E5" rx="11" ry="11" style="stroke: #A80036; stroke-width: 1.0;"/><path d="M24.3125,398 L18.1875,398 L18.1875,396.1563 L20.0313,396.1563 L20.0313,387.4219 L18.1875,387.4219 L18.1875,385.5938 L24.3125,385.5938 L24.3125,387.4219 L22.4688,387.4219 L22.4688,396.1563 L24.3125,396.1563 L24.3125,398 Z "/><text fill="#000000" font-family="sans-serif" font-size="12" font-style="italic" lengthAdjust="spacingAndGlyphs" textLength="29" x="35" y="396.656">Effect</text><!--class Concurrent--><rect fill="#FEFECE" filter="url(#f1o9iasg394odr)" height="32" id="Concurrent" style="stroke: #A80036; stroke-width: 1.5;" width="92" x="102.5" y="376"/><ellipse cx="117.5" cy="392" fill="#B4A7E5" rx="11" ry="11" style="stroke: #A80036; stroke-width: 1.0;"/><path d="M120.8125,398 L114.6875,398 L114.6875,396.1563 L116.5313,396.1563 L116.5313,387.4219 L114.6875,387.4219 L114.6875,385.5938 L120.8125,385.5938 L120.8125,387.4219 L118.9688,387.4219 L118.9688,396.1563 L120.8125,396.1563 L120.8125,398 Z "/><text fill="#000000" font-family="sans-serif" font-size="12" font-style="italic" lengthAdjust="spacingAndGlyphs" textLength="60" x="131.5" y="396.656">Concurrent</text><!--class ConcurrentEffect--><rect fill="#FEFECE" filter="url(#f1o9iasg394odr)" height="32" id="ConcurrentEffect" style="stroke: #A80036; stroke-width: 1.5;" width="121" x="32" y="468"/><ellipse cx="47" cy="484" fill="#B4A7E5" rx="11" ry="11" style="stroke: #A80036; stroke-width: 1.0;"/><path d="M50.3125,490 L44.1875,490 L44.1875,488.1563 L46.0313,488.1563 L46.0313,479.4219 L44.1875,479.4219 L44.1875,477.5938 L50.3125,477.5938 L50.3125,479.4219 L48.4688,479.4219 L48.4688,488.1563 L50.3125,488.1563 L50.3125,490 Z "/><text fill="#000000" font-family="sans-serif" font-size="12" font-style="italic" lengthAdjust="spacingAndGlyphs" textLength="89" x="61" y="488.656">ConcurrentEffect</text><!--link MonadError to Bracket--><path d="M92.5,60.4048 C92.5,74.0788 92.5,88.9368 92.5,99.8498 " fill="none" id="MonadError-Bracket" style="stroke: #A80036; stroke-width: 1.0;"/><polygon fill="none" points="85.5001,60.0252,92.5,40.0252,99.5001,60.0251,85.5001,60.0252" style="stroke: #A80036; stroke-width: 1.0;"/><!--link Bracket to Sync--><path d="M92.5,152.4048 C92.5,166.0788 92.5,180.9368 92.5,191.8498 " fill="none" id="Bracket-Sync" style="stroke: #A80036; stroke-width: 1.0;"/><polygon fill="none" points="85.5001,152.0252,92.5,132.0252,99.5001,152.0251,85.5001,152.0252" style="stroke: #A80036; stroke-width: 1.0;"/><!--link Sync to Async--><path d="M92.5,244.4048 C92.5,258.0788 92.5,272.9368 92.5,283.8498 " fill="none" id="Sync-Async" style="stroke: #A80036; stroke-width: 1.0;"/><polygon fill="none" points="85.5001,244.0252,92.5,224.0252,99.5001,244.0251,85.5001,244.0252" style="stroke: #A80036; stroke-width: 1.0;"/><!--link Async to Effect--><path d="M72.1332,333.4598 C63.3373,347.9101 53.4535,364.1479 46.3306,375.8498 " fill="none" id="Async-Effect" style="stroke: #A80036; stroke-width: 1.0;"/><polygon fill="none" points="66.3672,329.4695,82.7455,316.0252,78.326,336.7488,66.3672,329.4695" style="stroke: #A80036; stroke-width: 1.0;"/><!--link Async to Concurrent--><path d="M112.8668,333.4598 C121.6627,347.9101 131.5465,364.1479 138.6694,375.8498 " fill="none" id="Async-Concurrent" style="stroke: #A80036; stroke-width: 1.0;"/><polygon fill="none" points="106.674,336.7488,102.2545,316.0252,118.6328,329.4695,106.674,336.7488" style="stroke: #A80036; stroke-width: 1.0;"/><!--link Concurrent to ConcurrentEffect--><path d="M128.1332,425.4598 C119.3373,439.9101 109.4535,456.1479 102.3306,467.8498 " fill="none" id="Concurrent-ConcurrentEffect" style="stroke: #A80036; stroke-width: 1.0;"/><polygon fill="none" points="122.3672,421.4695,138.7455,408.0252,134.326,428.7488,122.3672,421.4695" style="stroke: #A80036; stroke-width: 1.0;"/><!--link Effect to ConcurrentEffect--><path d="M56.8668,425.4598 C65.6627,439.9101 75.5465,456.1479 82.6694,467.8498 " fill="none" id="Effect-ConcurrentEffect" style="stroke: #A80036; stroke-width: 1.0;"/><polygon fill="none" points="50.674,428.7488,46.2545,408.0252,62.6328,421.4695,50.674,428.7488" style="stroke: #A80036; stroke-width: 1.0;"/><!--
@startuml
interface MonadError
interface Bracket
interface Sync
interface Async
interface Effect
interface Concurrent
interface ConcurrentEffect

MonadError <|- - Bracket
Bracket <|- - Sync
Sync <|- - Async
Async <|- - Effect
Async <|- - Concurrent
Concurrent <|- - ConcurrentEffect
Effect <|- - ConcurrentEffect
hide members
@enduml

PlantUML version 1.2018.10(Sun Aug 26 01:02:59 CST 2018)
(GPL source distribution)
Java Runtime: OpenJDK Runtime Environment
JVM: OpenJDK 64-Bit Server VM
Java Version: 1.8.0_181-b13
Operating System: Linux
OS Version: 4.18.6-arch1-1-ARCH
Default Encoding: UTF-8
Language: en
Country: US
--></g></svg>