<?xml version="1.0" encoding="UTF-8" standalone="no"?>
<!DOCTYPE svg PUBLIC "-//W3C//DTD SVG 1.1//EN"
 "http://www.w3.org/Graphics/SVG/1.1/DTD/svg11.dtd">
<!-- Generated by graphviz version 2.40.1 (20161225.0304)
 -->
<!-- Title: quill Pages: 1 -->
<svg width="325pt" height="203pt"
 viewBox="0.00 0.00 325.00 203.00" xmlns="http://www.w3.org/2000/svg" xmlns:xlink="http://www.w3.org/1999/xlink">
<g id="graph0" class="graph" transform="scale(1 1) rotate(0) translate(4 199)">
<title>quill</title>
<!-- scala -->
<g id="node1" class="node">
<title>scala</title>
<polygon fill="none" stroke="#000000" points="294.5,-180 210.5,-180 210.5,-144 294.5,-144 294.5,-180"/>
<text text-anchor="middle" x="252.5" y="-158.3" font-family="monospace" font-size="14.00" fill="#000000">Scala AST</text>
<text text-anchor="middle" x="135" y="-183.8" font-family="monospace" font-size="14.00" fill="#000000">query[Foo].map(_.id)</text>
</g>
<!-- quill -->
<g id="node2" class="node">
<title>quill</title>
<polygon fill="none" stroke="#000000" points="317,-108 188,-108 188,-72 317,-72 317,-108"/>
<text text-anchor="middle" x="252.5" y="-86.3" font-family="monospace" font-size="14.00" fill="#000000">Macro expansion</text>
<text text-anchor="middle" x="94" y="-111.8" font-family="monospace" font-size="14.00" fill="#000000">xxxContext.run(quotedAst)</text>
</g>
<!-- scala&#45;&gt;quill -->
<g id="edge1" class="edge">
<title>scala&#45;&gt;quill</title>
<path fill="none" stroke="#000000" d="M252.5,-143.8314C252.5,-136.131 252.5,-126.9743 252.5,-118.4166"/>
<polygon fill="#000000" stroke="#000000" points="256.0001,-118.4132 252.5,-108.4133 249.0001,-118.4133 256.0001,-118.4132"/>
</g>
<!-- output -->
<g id="node3" class="node">
<title>output</title>
<polygon fill="none" stroke="#000000" points="279.5,-36 225.5,-36 225.5,0 279.5,0 279.5,-36"/>
<text text-anchor="middle" x="252.5" y="-14.3" font-family="monospace" font-size="14.00" fill="#000000">SQL</text>
<text text-anchor="middle" x="120" y="-39.8" font-family="monospace" font-size="14.00" fill="#000000">xxxContext.executeQuery(sql)</text>
</g>
<!-- quill&#45;&gt;output -->
<g id="edge2" class="edge">
<title>quill&#45;&gt;output</title>
<path fill="none" stroke="#000000" d="M252.5,-71.8314C252.5,-64.131 252.5,-54.9743 252.5,-46.4166"/>
<polygon fill="#000000" stroke="#000000" points="256.0001,-46.4132 252.5,-36.4133 249.0001,-46.4133 256.0001,-46.4132"/>
</g>
</g>
</svg>
